<svg fill="none" height="220" viewBox="0 0 220 220" width="220" xmlns="http://www.w3.org/2000/svg"><path clip-rule="evenodd" d="m118.602 52h22.796c3.46 0 6.708 1.6713 8.72 4.4874l1.836 2.5703c3.111 4.3567 8.136 6.9423 13.49 6.9423 1.258 0 2.462.5183 3.326 1.4329l11.403 12.0605c2.458 2.5994 3.827 6.041 3.827 9.6182v60.8884c0 7.732-6.268 14-14 14h-120c-7.732 0-14-6.268-14-14v-60.8884c0-3.5772 1.3693-7.0188 3.8269-9.6182l8.6146-9.1116c2.6445-2.797 6.3239-4.3818 10.1731-4.3818h11.3854 21.3977c7.3361 0 14.2203-3.5429 18.4843-9.5126 2.012-2.8161 5.26-4.4874 8.72-4.4874zm36.398 1c-3.138-4.3929-8.204-7-13.602-7h-22.796c-5.398 0-10.464 2.6071-13.602 7s-8.2039 7-13.6023 7h-21.3977-11.3854c-5.4989 0-10.7552 2.264-14.5329 6.2598l-8.6146 9.1116c-3.5109 3.7134-5.4671 8.6299-5.4671 13.7402v60.8884c0 11.046 8.9543 20 20 20h120c11.046 0 20-8.954 20-20v-60.8884c0-5.1103-1.956-10.0268-5.467-13.7402l-11.403-12.0606c-1.998-2.1133-4.778-3.3108-7.686-3.3108-3.417 0-6.622-1.6498-8.608-4.4297zm-71 33c3.3137 0 6-2.6863 6-6s-2.6863-6-6-6-6 2.6863-6 6 2.6863 6 6 6zm46 62c18.778 0 34-15.222 34-34 0-18.7777-15.222-34-34-34s-34 15.2223-34 34c0 18.778 15.222 34 34 34zm0 6c22.091 0 40-17.909 40-40 0-22.0914-17.909-40-40-40s-40 17.9086-40 40c0 22.091 17.909 40 40 40zm24-40c0 13.255-10.745 24-24 24s-24-10.745-24-24 10.745-24 24-24 24 10.745 24 24zm-94.8787-29.1213c1.1716 1.1716 1.1716 3.071 0 4.2426l-1.8284 1.8284c-.1875.1876-.2929.4419-.2929.7072v44.6861c0 .265.1054.52.2929.707l1.8284 1.829c1.1716 1.171 1.1716 3.071 0 4.242-1.1716 1.172-3.071 1.172-4.2426 0l-1.8284-1.828c-1.3128-1.313-2.0503-3.093-2.0503-4.95v-44.6861c0-1.8566.7375-3.637 2.0503-4.9498l1.8284-1.8284c1.1716-1.1716 3.071-1.1716 4.2426 0z" fill="#fff" fill-rule="evenodd"/></svg>