<svg fill="none" height="220" viewBox="0 0 220 220" width="220" xmlns="http://www.w3.org/2000/svg"><path clip-rule="evenodd" d="m168.359 119.331-2.735-1.771-2.974 1.33c-3.1 1.385-6.428 2.497-9.905 3.372-6.326-27.509-35.408-34.262-60.7446-34.262-6.5042 0-13.2553.445-19.8049 1.572-.1288-1.4616-.1951-2.9846-.1951-4.572 0-16.4741 7.135-26.0215 17.2519-31.8136 10.591-6.0635 24.8557-8.1864 38.7477-8.1864 13.893 0 28.158 2.1229 38.749 8.1864 10.116 5.7921 17.251 15.3395 17.251 31.8136 0 11.2543-3.332 19.091-8.324 24.696l-1.794 2.016.316 2.679c.37 3.123 1.236 5.964 2.457 8.585-3.071-.917-5.965-2.136-8.296-3.645zm-102.0737-28.5341c-.1879-1.8509-.2849-3.7821-.2849-5.7969 0-37.3884 33.3888-46 61.9996-46 28.612 0 62 8.6116 62 46 0 12.5508-3.762 21.859-9.843 28.687.479 4.054 2.041 7.6 4.377 10.945 1.522 2.179 3.372 4.274 5.467 6.368-2.672 0-5.696-.264-8.798-.806-5.667-.99-11.593-2.906-16.105-5.827-3.593 1.606-7.423 2.866-11.382 3.836.187 1.851.284 3.782.284 5.797 0 37.388-33.388 46-61.9996 46-12.5168 0-25.9479-1.648-37.0979-6.633-6.981 4.521-17.3502 6.633-24.9025 6.633 5.3095-5.309 9.0524-10.618 9.844-17.313-6.0812-6.828-9.8436-16.136-9.8436-28.687 0-26.303 16.5244-38.3634 36.2849-43.2031z" fill="#fff" fill-rule="evenodd"/></svg>