<svg fill="none" height="220" viewBox="0 0 220 220" width="220" xmlns="http://www.w3.org/2000/svg"><path clip-rule="evenodd" d="m81.6814 41.6329c8.9781-3.7188 18.6006-5.6329 28.3186-5.6329s19.34 1.9141 28.319 5.6329c8.978 3.7189 17.135 9.1697 24.007 16.0412 6.871 6.8715 12.322 15.0292 16.041 24.0073s5.633 18.6006 5.633 28.3186v18c0 1.657 1.343 3 3 3s3-1.343 3-3v-18c0-10.5058-2.069-20.9086-6.09-30.6147-4.02-9.706-9.913-18.5252-17.341-25.9538-7.429-7.4287-16.248-13.3215-25.954-17.3419-9.706-4.0203-20.109-6.0896-30.615-6.0896-10.5058 0-20.9086 2.0693-30.6147 6.0896-9.706 4.0204-18.5252 9.9132-25.9538 17.3419-7.4287 7.4286-13.3215 16.2478-17.3419 25.9538-4.0203 9.7061-6.0896 20.109-6.0896 30.6147v18c0 1.657 1.3431 3 3 3s3-1.343 3-3v-18c0-9.718 1.9141-19.3405 5.6329-28.3186 3.7189-8.9781 9.1697-17.1358 16.0412-24.0073s15.0292-12.3223 24.0073-16.0412zm84.3186 62.0021c0-2.402 2.682-3.8296 4.675-2.488l6 4.038c.828.558 1.325 1.491 1.325 2.489v22.652c0 .998-.497 1.931-1.325 2.489l-6 4.038c-1.993 1.342-4.675-.086-4.675-2.488zm-112 0c0-2.402-2.6824-3.8296-4.6751-2.488l-6 4.038c-.8283.558-1.3249 1.491-1.3249 2.489v22.652c0 .998.4966 1.931 1.3249 2.489l6 4.038c1.9927 1.342 4.6751-.086 4.6751-2.488zm84-21.9981c0-1.3506-1.311-2.3129-2.599-1.908l-49.7919 15.6453c-.8335.2618-1.4005 1.0344-1.4005 1.908v59.4288c-3.4389-1.598-8.1734-1.944-13.032-.642-8.4678 2.269-14.106 8.685-12.5934 14.33s9.6033 8.382 18.071 6.113c8.0493-2.157 13.5418-8.061 12.7657-13.488.0406-.159.0622-.325.0623-.496l.0169-50.781c.0003-.873.5673-1.645 1.4005-1.907l39.2104-12.3206c1.288-.4048 2.599.5575 2.599 1.9081v43.3945c-3.438-1.598-8.173-1.944-13.032-.642-8.467 2.269-14.106 8.684-12.593 14.33 1.513 5.645 9.603 8.382 18.071 6.113 8.025-2.151 13.509-8.026 12.773-13.439.047-.171.072-.351.072-.537z" fill="#fff" fill-rule="evenodd"/></svg>