<svg fill="none" height="220" viewBox="0 0 220 220" width="220" xmlns="http://www.w3.org/2000/svg"><path clip-rule="evenodd" d="m77 32c1.6569 0 3 1.3431 3 3v6c0 1.6569-1.3431 3-3 3s-3-1.3431-3-3v-6c0-1.6569 1.3431-3 3-3zm34.121 13.8787c1.172 1.1716 1.172 3.071 0 4.2426l-4.5 4.5c-1.171 1.1716-3.071 1.1716-4.242 0-1.172-1.1716-1.172-3.071 0-4.2426l4.5-4.5c1.171-1.1716 3.071-1.1716 4.242 0zm-68.2423 0c1.1716-1.1716 3.071-1.1716 4.2426 0l4.5 4.5c1.1716 1.1716 1.1716 3.071 0 4.2426s-3.071 1.1716-4.2426 0l-4.5-4.5c-1.1716-1.1716-1.1716-3.071 0-4.2426zm-13.8787 34.1213c0-1.6569 1.3431-3 3-3h6c1.6569 0 3 1.3431 3 3 0 1.6568-1.3431 3-3 3h-6c-1.6569 0-3-1.3432-3-3zm22.6213 25.379c1.1716 1.171 1.1716 3.071 0 4.242l-4.5 4.5c-1.1716 1.172-3.071 1.172-4.2426 0-1.1716-1.171-1.1716-3.071 0-4.242l4.5-4.5c1.1716-1.172 3.071-1.172 4.2426 0zm47.6109-34.4361c-4.5121 3.8924-8.1668 8.7515-10.6426 14.2555-9.9918 1.1705-18.4311 7.4204-22.6664 16.0976-7.6797-4.002-12.9232-12.0367-12.9232-21.296 0-13.2548 10.7452-24 24-24 10.0503 0 18.6578 6.1777 22.2322 14.9429zm4.9468-3.6601c-4.7859-10.2109-15.1566-17.2828-27.179-17.2828-16.5685 0-30 13.4315-30 30 0 11.8544 6.8757 22.103 16.8566 26.975-.5596 2.249-.8566 4.603-.8566 7.025 0 16.016 12.9837 29 29 29h34 34c17.121 0 31-13.879 31-31 0-16.7071-13.216-30.3273-29.765-30.9758-7.154-11.9921-20.256-20.0242-35.235-20.0242-8.02 0-15.502 2.3026-21.821 6.2828zm45.942 85.5962c1.172 1.171 1.172 3.071 0 4.242l-12 12c-1.171 1.172-3.071 1.172-4.242 0-1.172-1.171-1.172-3.071 0-4.242l12-12c1.171-1.172 3.071-1.172 4.242 0zm-34 16.242c1.172-1.171 1.172-3.071 0-4.242-1.171-1.172-3.071-1.172-4.242 0l-12.0003 12c-1.1716 1.171-1.1716 3.071 0 4.242 1.1713 1.172 3.0713 1.172 4.2423 0zm-22.9997-16.242c1.1716 1.171 1.1716 3.071 0 4.242l-10 10c-1.1716 1.172-3.071 1.172-4.2426 0-1.1716-1.171-1.1716-3.071 0-4.242l10-10c1.1716-1.172 3.071-1.172 4.2426 0z" fill="#fff" fill-rule="evenodd"/></svg>