<svg fill="none" height="1000" viewBox="0 0 1000 1000" width="1000" xmlns="http://www.w3.org/2000/svg" xmlns:xlink="http://www.w3.org/1999/xlink"><clipPath id="a"><path d="m0 0h1000v1000h-1000z"/></clipPath><mask id="b" height="148" maskUnits="userSpaceOnUse" width="350" x="0" y="455"><path clip-rule="evenodd" d="m163.169 582.334 6.793-16.087c3.379-8.004 11.223-13.206 19.911-13.206h31.421c4.116 0 5.903 5.208 2.654 7.734l-8.027 6.244c-3.166 2.462-5.907 5.379-8.148 8.632l47.727 2.849 14.5-20.5 80-58-41 16.5-91-5.5-109-19-58 8-51-45v37 95.322l.031929.034 8.912761-21.109c3.37941-8.004 11.22291-13.206 19.91091-13.206h33.5844c3.851 0 5.7796 4.656 3.0565 7.379l-8.1208 8.121c-3.968 3.968-6.542 9.116-7.3356 14.671l-2.8269 19.788h18.7868l31-20.5 15.026 2.446-3.558-18.11c-.659-3.355-.291-6.831 1.056-9.974 2.679-6.252 8.826-10.305 15.628-10.305h33.466c3.851 0 5.78 4.656 3.057 7.379l-7.238 7.237c-2.834 2.834-3.348 7.244-1.243 10.654l7.045 11.414z" fill="#7da4c7" fill-rule="evenodd"/></mask><g clip-path="url(#a)"><path d="m0 500h1000v500h-1000z" fill="#063365"/><path d="m0 579.5v-170.5l30.5 22.5h35.5l31 20.5 43-7 48.5 15 67-4 14.5 20.5 80 23.5-41 18-91 5.5-109 19-58-8z" fill="#9abdd9"/><g fill="#7da4c7"><path d="m0 579.5v-37l18-2.75 18-9.25-14.5-11.5-13-1 14.5-3.5 25 3 32-12.5-11.5 9.5 53.5 20 39.5-15.5 25-21.5-10-6 27 6 16.5-3-31.5 16 35 4 46.5-12-26 10.5 65 5-91 5.5-109 19-58-8z"/><path d="m270 476.5 80 23.5-107-15 16.5-4-19-13.5h-43l10 9-67.5-18-54.5 6.5-16.5-22-55.5 9 11.5-11-25-4.5v-27.5l30.5 22.5h35.5l31 20.5 43-7 48.5 15 67-4z"/><path d="m227.5 473.5-56 6-53.5-6-22 5 23.5 14h43.5l13.5-8 30 3.5 30.5-6.5z"/><path d="m74.5 476.5-29-4h-20l-18.5 4 7 9 32.5 2 22-2z"/></g><path d="m8.94468 468.253-14.9564-35.423 50.79052-18.371 5.2613 36.829c.7936 5.555 3.3676 10.703 7.3356 14.671l8.1208 8.121c2.7231 2.723.7945 7.379-3.0565 7.379h-33.5844c-8.688 0-16.5315-5.202-19.91092-13.206z" fill="#eee"/><path d="m169.962 468.253-14.957-35.423 35.662-39.984 11.089 52.036c1.911 8.967 6.928 16.97 14.165 22.599l8.027 6.244c3.249 2.527 1.462 7.734-2.654 7.734h-31.421c-8.688 0-16.532-5.202-19.911-13.206z" fill="#eee"/><path d="m-47.6782 386.909-20.7504 79.37c-2.8646 10.957 5.4028 21.664 16.7281 21.664h40.6566c3.85104 0 5.77964-4.656 3.05656-7.379l-4.65926-4.659c-4.1301-4.13-4.231-10.795-.2279-15.048l19.64359-20.871c5.03661-5.352 11.64701-8.959 18.87241-10.3l87.4455-16.227c3.001-.557 5.619 2.088 5.03 5.083l-9.649 49.122c-.659 3.355-.291 6.831 1.056 9.974 2.679 6.252 8.826 10.305 15.628 10.305h33.466c3.851 0 5.78-4.656 3.057-7.379l-7.238-7.237c-2.834-2.834-3.348-7.244-1.243-10.654l40.897-66.254c6.204-10.051 15.418-17.891 26.332-22.407l100.667-41.655c4.782-1.979 7.9-6.644 7.9-11.818 0-2.612-1.742-4.903-4.258-5.602l-22.724-6.312c-7.911-2.197-16.084-3.312-24.295-3.312h-51.058c-11.173 0-22.314-1.186-33.236-3.54l-2.292-.494c-14.103-3.039-28.693-3.039-42.796 0l-2.292.494c-10.922 2.354-22.063 3.54-33.235 3.54h-52.3814c-7.3464 0-14.6721.781-21.8536 2.328l-4.4604.962c-39.84957 8.587-71.476 38.867-81.7868 78.306z" fill="#fff"/><path clip-rule="evenodd" d="m323.75 314.665c-.107.467-.164.955-.164 1.455 0 3.203 2.323 5.864 5.376 6.389.018-.256.027-.514.027-.774v-1.815c0-2.246-1.498-4.216-3.662-4.817z" fill="#000" fill-rule="evenodd"/><circle cx="293.328" cy="316.12" fill="#000" r="2.1613"/><path clip-rule="evenodd" d="m271.573 309.712c1.167.313.886 1.884-.171 2.47-1.977 1.098-3.523 2.965-4.154 5.321-.632 2.357-.226 4.747.937 6.686.622 1.036.08 2.537-1.087 2.224-4.612-1.235-7.349-5.976-6.113-10.588 1.235-4.612 5.976-7.349 10.588-6.113z" fill="#eee" fill-rule="evenodd"/><path clip-rule="evenodd" d="m74.789 305.314c15.2976 3.238 25.28 12.828 32.114 19.393 6.601 6.342 10.264 9.861 12.942 2.108 4.952-14.336 17.609-21.989 24.496-24.686-10.377 2.118-20.943 3.185-31.538 3.185zm42.282 118.55c3.208-11.411 8.596-24.001 11.988-29.937 4.322-7.565-8.149-1.326-15.118 2.161-6.866 3.437-11.916 3.534-19.0077 3.671-6.2893.121-14.185.273-26.3793 2.813-27.079 5.639-46.8661 23.85-56.7723 33.024 4.1074-2.949 8.8347-4.978 13.8594-5.91l87.4459-16.227c3.001-.557 5.618 2.088 5.03 5.083z" fill="#f8f8f8" fill-rule="evenodd"/><path d="m193.093 388.545c27.166-26.235 13.749-46.492 1.87-55.188-.832-.61-1.771.336-1.256 1.229 11.45 19.863 10.409 25.773-2.111 52.856-.454.982.719 1.855 1.497 1.103z" fill="#f8f8f8"/><g mask="url(#b)" opacity=".1"><path d="m0 455v170.5l30.5-22.5h35.5l31-20.5 43 7 48.5-15 67 4 14.5-20.5 80-58-41 16.5-91-5.5-109-19-58 8z" fill="#9abdd9"/><g fill="#7da4c7"><path d="m0 455v37l18 2.75 18 9.25-14.5 11.5-13 1 14.5 3.5 25-3 32 12.5-11.5-9.5 53.5-20 39.5 15.5 25 21.5-10 6 27-6 16.5 3-31.5-16 35-4 46.5 12-26-10.5 65-5-91-5.5-109-19-58 8z"/><path d="m270 558 80-58-107 49.5 16.5 4-19 13.5h-43l10-9-67.5 18-54.5-6.5-16.5 22-55.5-9 11.5 11-25 4.5v27.5l30.5-22.5h35.5l31-20.5 43 7 48.5-15 67 4z"/><path d="m227.5 561-56-6-53.5 6-22-5 23.5-14h43.5l13.5 8 30-3.5 30.5 6.5z"/><path d="m74.5 558-29 4h-20l-18.5-4 7-9 32.5-2 22 2z"/></g></g><g opacity=".05"><path d="m8.94468 566.247-14.9564 35.423 50.79052 18.371 5.2613-36.829c.7936-5.555 3.3676-10.703 7.3356-14.671l8.1208-8.121c2.7231-2.723.7945-7.379-3.0565-7.379h-33.5844c-8.688 0-16.5315 5.202-19.91092 13.206z" fill="#eee"/><path d="m169.962 566.247-14.957 35.423 35.662 39.984 11.089-52.036c1.911-8.967 6.928-16.97 14.165-22.599l8.027-6.244c3.249-2.527 1.462-7.734-2.654-7.734h-31.421c-8.688 0-16.532 5.202-19.911 13.206z" fill="#eee"/><path d="m-47.6782 647.591-20.7504-79.37c-2.8646-10.957 5.4028-21.664 16.7281-21.664h40.6566c3.85104 0 5.77964 4.656 3.05656 7.379l-4.65926 4.659c-4.1301 4.13-4.231 10.795-.2279 15.048l19.64359 20.871c5.03661 5.352 11.64701 8.959 18.87241 10.3l87.4455 16.227c3.001.557 5.619-2.088 5.03-5.083l-9.649-49.122c-.659-3.355-.291-6.831 1.056-9.974 2.679-6.252 8.826-10.305 15.628-10.305h33.466c3.851 0 5.78 4.656 3.057 7.379l-7.238 7.237c-2.834 2.834-3.348 7.244-1.243 10.654l40.897 66.254c6.204 10.051 15.418 17.891 26.332 22.407l100.667 41.655c4.782 1.979 7.9 6.644 7.9 11.818 0 2.612-1.742 4.903-4.258 5.602l-22.724 6.312c-7.911 2.197-16.084 3.312-24.295 3.312h-51.058c-11.173 0-22.314 1.186-33.236 3.54l-2.292.494c-14.103 3.039-28.693 3.039-42.796 0l-2.292-.494c-10.922-2.354-22.063-3.54-33.235-3.54h-52.3814c-7.3464 0-14.6721-.781-21.8536-2.328l-4.4604-.962c-39.84957-8.587-71.476-38.867-81.7868-78.306z" fill="#fff"/><path clip-rule="evenodd" d="m323.75 719.835c-.107-.467-.164-.955-.164-1.455 0-3.203 2.323-5.864 5.376-6.389.018.256.027.514.027.774v1.815c0 2.246-1.498 4.216-3.662 4.817z" fill="#000" fill-rule="evenodd"/><path d="m295.49 718.38c0-1.193-.968-2.161-2.162-2.161-1.193 0-2.161.968-2.161 2.161 0 1.194.968 2.162 2.161 2.162 1.194 0 2.162-.968 2.162-2.162z" fill="#000"/><path clip-rule="evenodd" d="m271.573 724.788c1.167-.313.886-1.884-.171-2.47-1.977-1.098-3.523-2.965-4.154-5.321-.632-2.357-.226-4.747.937-6.686.622-1.036.08-2.537-1.087-2.224-4.612 1.235-7.349 5.976-6.113 10.588 1.235 4.612 5.976 7.349 10.588 6.113z" fill="#eee" fill-rule="evenodd"/><g fill="#f8f8f8"><path clip-rule="evenodd" d="m74.789 729.186c15.2976-3.238 25.28-12.828 32.114-19.393 6.601-6.342 10.264-9.861 12.942-2.108 4.952 14.336 17.609 21.989 24.496 24.686-10.377-2.118-20.943-3.185-31.538-3.185zm42.282-118.55c3.208 11.411 8.596 24.001 11.988 29.937 4.322 7.565-8.149 1.326-15.118-2.161-6.866-3.437-11.916-3.534-19.0077-3.671-6.2893-.121-14.185-.273-26.3793-2.813-27.079-5.639-46.8661-23.85-56.7723-33.024 4.1074 2.949 8.8347 4.978 13.8594 5.91l87.4459 16.227c3.001.557 5.618-2.088 5.03-5.083z" fill-rule="evenodd"/><path d="m193.093 645.955c27.166 26.235 13.749 46.492 1.87 55.188-.832.61-1.771-.336-1.256-1.229 11.45-19.863 10.409-25.773-2.112-52.856-.453-.982.72-1.855 1.498-1.103z"/></g></g><path d="m834.5 409 41.5-4 34.5-35.5 47 7 42.5-22.5v146h-256.5l28-41 47-22.5z" fill="#567da8"/><path d="m928 461 25.5 15.5 31.5-8v-17l15 35v13.5h-151.5-105l49.5-15.5 23 10 13.5-8-7.25 13.5h26.25l39.5-13.5-22-15.5 51.5 9-6 14.5 26-6.5z" fill="#4b75a3"/><path d="m834.5 409 41.5-4 34.5-35.5 47 7 42.5-22.5v20.75l-13 14.75-1.5 17-13.75 10.5 4.75 11.5-33 10-51.5-8 14-2 2-13.5 37 8 5-23-40.5-21.5 8 21-8-3-28 18.5-32.5 2-5 30.5 39.5 4-21.5 21v-14.5l-72.5 3.5-46 38.5 28-41 47-22.5z" fill="#4b75a3"/><g opacity=".1"><path d="m834.5 561.705 41.5 2.713 34.5 24.072 47-4.747 42.5 15.257v-99h-256.5l28 27.801 47 15.257z" fill="#567da8"/><g fill="#4b75a3"><path d="m928 526.445 25.5-10.51 31.5 5.425v11.527l15-23.733v-9.154h-151.5-105l49.5 10.51 23-6.78 13.5 5.424-7.25-9.154h26.25l39.5 9.154-22 10.511 51.5-6.103-6-9.832 26 4.407z"/><path d="m834.5 561.705 41.5 2.713 34.5 24.072 47-4.747 42.5 15.257v-14.07l-13-10.002-1.5-11.527-13.75-7.12 4.75-7.798-33-6.781-51.5 5.425 14 1.356 2 9.154 37-5.425 5 15.596-40.5 14.579 8-14.24-8 2.035-28-12.545-32.5-1.356-5-20.682 39.5-2.712-21.5-14.24v9.832l-72.5-2.373-46-26.106 28 27.801 47 15.257z"/></g></g><path d="m0 1000h1000v-389l-158.136 44.054-22.154 84.144-82.506-20.705-90.909 10.573-55.768 112.779-113.827 38.327h-181.054l-70.283 73.571z" fill="#e4eef4"/><path d="m490.076 967.782-43.511 32.218h187.786 185.359 64.259l27.481-44.747 41.985 9.546-44.275-23.268 28.245-16.706 62.595 24.462v-35.798l-70.992-79.948 10.687-38.78-28.245 31.621v55.486h-106.106l21.374 17.302-64.886 4.177 112.214 29.234-54.336 67.419h-185.359l-43.824-23.865-100.451 12.529z" fill="#d7e4ed"/><path d="m225.363 953.743-225.36287793 46.257h205.34387793l64.885-22.075 45.038-56.083 138.168-26.251-30.534 32.217 193.13-76.368 92.366 28.732-29.771-38.327h29.771l-54.962-32.169 25.191-50.713 66.412-19.765 74.672 22.748-20.473 65.033 91.603-141.997 109.16-22.672v-51.31l-158.136 44.054-22.154 84.144-82.506-20.705-90.909 10.573-55.768 112.779-113.827 38.327h-181.054z" fill="#d7e4ed"/></g></svg>